# xmcd
#
# Track frame offsets: 
#        150
#        23422
#        45957
#        67037
#        85387
#        122987
#        140767
#        164822
#        178807
#        206512
#        222145
#        245287
#        262435
#        288107
#        307312
#
# Disc length: 4478 seconds
#
# Revision: 1
# Processed by: cddbd v1.5.2PL0 Copyright (c) Steve Scherf et al.
# Submitted via: ExactAudioCopy v0.99pb5
#
DISCID=eb117c0f
DTITLE=Julian Sas - Ragin' River (with 5 acoustic songs)
DYEAR=2002
DGENRE=Hard Blues
TTITLE0=When I Boogie
TTITLE1=Mother Earth
TTITLE2=Am I Losing My Way
TTITLE3=Mean Old City!
TTITLE4=Ragin' River
TTITLE5=Devil Woman
TTITLE6=Tomorrow Is A Promise (To No One)
TTITLE7=Hard To Tell
TTITLE8=Searchin'
TTITLE9=Signature Blues
TTITLE10=Texas Tornado (Big Bill Broonzy)
TTITLE11=Jockey Blues (John Lee Hooker)
TTITLE12=Long Distance Call (M.Morganfield)
TTITLE13=Cat Man Blues (Fuller Allen)
TTITLE14=Too Much Alcogol (J.B.Hutto)
EXTD=
EXTT0=
EXTT1=
EXTT2=
EXTT3=
EXTT4=
EXTT5=
EXTT6=
EXTT7=
EXTT8=
EXTT9=
EXTT10=
EXTT11=
EXTT12=
EXTT13=
EXTT14=
PLAYORDER=
